<svg id="Capa_1" data-name="Capa 1" xmlns="http://www.w3.org/2000/svg" viewBox="0 0 64 64"><defs><style>.cls-1{fill:#fff;}</style></defs><title>ICONOS</title><path class="cls-1" d="M57,25.8H51.81a2,2,0,0,1-1.41-3.43l3.69-3.69a2.89,2.89,0,0,0,0-4.07l-4.71-4.7a2.93,2.93,0,0,0-4.06,0L41.63,13.6a2,2,0,0,1-3.43-1.42V7a2.88,2.88,0,0,0-2.87-2.88H28.67A2.87,2.87,0,0,0,25.8,7v5.22a2,2,0,0,1-3.43,1.42L18.68,9.91a2.94,2.94,0,0,0-4.07,0l-4.7,4.7a2.86,2.86,0,0,0,0,4.07l3.69,3.69a2,2,0,0,1-1.42,3.43H7a2.87,2.87,0,0,0-2.88,2.87v6.66A2.87,2.87,0,0,0,7,38.2h5.22a2,2,0,0,1,1.42,3.43L9.91,45.32a2.86,2.86,0,0,0,0,4.07l4.7,4.7a2.94,2.94,0,0,0,4.07,0l3.69-3.69a2,2,0,0,1,3.43,1.42V57a2.87,2.87,0,0,0,2.87,2.88h6.66A2.88,2.88,0,0,0,38.2,57V51.82a2,2,0,0,1,3.43-1.42l3.69,3.69a2.93,2.93,0,0,0,4.06,0l4.71-4.7a2.89,2.89,0,0,0,0-4.07L50.4,41.63a2,2,0,0,1,1.41-3.43H57a2.87,2.87,0,0,0,2.88-2.87V28.67A2.87,2.87,0,0,0,57,25.8m.81,9.53a.81.81,0,0,1-.81.81H51.81a4.07,4.07,0,0,0-2.87,7l3.69,3.69a.81.81,0,0,1,0,1.14l-4.71,4.71a.81.81,0,0,1-1.14,0l-3.69-3.69a4.08,4.08,0,0,0-7,2.88V57a.8.8,0,0,1-.8.81H28.67a.81.81,0,0,1-.81-.81V51.82a4,4,0,0,0-2.51-3.76,4.08,4.08,0,0,0-1.59-.33,4,4,0,0,0-2.85,1.21l-3.69,3.69a.81.81,0,0,1-1.14,0l-4.71-4.71a.8.8,0,0,1,0-1.14l3.69-3.69a4.07,4.07,0,0,0-2.88-7H7a.81.81,0,0,1-.81-.81V28.67A.81.81,0,0,1,7,27.86h5.22a4.07,4.07,0,0,0,2.88-6.95l-3.69-3.69a.8.8,0,0,1,0-1.14l4.71-4.71a.81.81,0,0,1,1.14,0l3.69,3.69a4.07,4.07,0,0,0,7-2.88V7a.81.81,0,0,1,.81-.81h6.66a.8.8,0,0,1,.8.81v5.22a4.08,4.08,0,0,0,7,2.88l3.69-3.69a.81.81,0,0,1,1.14,0l4.71,4.71a.81.81,0,0,1,0,1.14l-3.69,3.69a4.08,4.08,0,0,0,2.87,7H57a.8.8,0,0,1,.81.8Z"/><path class="cls-1" d="M32,22.7A9.31,9.31,0,1,0,41.31,32,9.31,9.31,0,0,0,32,22.7m0,16.54A7.24,7.24,0,1,1,39.24,32,7.25,7.25,0,0,1,32,39.24"/></svg>