<svg id="Capa_1" data-name="Capa 1" xmlns="http://www.w3.org/2000/svg" viewBox="0 0 64 64"><defs><style>.cls-1{fill:#fff;}</style></defs><title>ICONOS</title><path class="cls-1" d="M21.43,50.94a5.36,5.36,0,1,1,5.36-5.35A5.36,5.36,0,0,1,21.43,50.94Zm0-9.06a3.71,3.71,0,1,0,3.71,3.71A3.71,3.71,0,0,0,21.43,41.88Z"/><path class="cls-1" d="M44.08,50.94a5.36,5.36,0,1,1,5.35-5.35A5.36,5.36,0,0,1,44.08,50.94Zm0-9.06a3.71,3.71,0,1,0,3.7,3.71A3.71,3.71,0,0,0,44.08,41.88Z"/><path class="cls-1" d="M53.13,47.92H50.79V45.59a6.72,6.72,0,1,0-13.43,0v2.33H27.82l.2-1a6.73,6.73,0,1,0-13.17,0l.21,1H10.87A3.86,3.86,0,0,1,7,44.07V16.91a3.86,3.86,0,0,1,3.85-3.85H35a3.86,3.86,0,0,1,3.85,3.85V19.1h9.74A3.86,3.86,0,0,1,51.9,21l4.53,7.54a3.86,3.86,0,0,1,.55,2V44.07A3.86,3.86,0,0,1,53.13,47.92Zm-.68-1.65h.68a2.21,2.21,0,0,0,2.2-2.2V30.49A2.15,2.15,0,0,0,55,29.36l-4.52-7.55a2.23,2.23,0,0,0-1.88-1.06H37.21V16.91A2.2,2.2,0,0,0,35,14.71H10.87a2.21,2.21,0,0,0-2.2,2.2V44.07a2.21,2.21,0,0,0,2.2,2.2h2.22c0-.23,0-.45,0-.68a8.37,8.37,0,1,1,16.74,0c0,.23,0,.45,0,.68h5.93v-.68a8.37,8.37,0,1,1,16.74,0ZM50.94,32.83H40.23v-9.2H47.6l3.34,6.86Zm-9.06-1.66h7.41v-.48l-2.71-5.41h-4.7Z"/></svg>