<?xml version="1.0" encoding="utf-8"?>
<!-- Generator: Adobe Illustrator 23.0.0, SVG Export Plug-In . SVG Version: 6.00 Build 0)  -->
<svg version="1.1" id="Capa_1" xmlns="http://www.w3.org/2000/svg" xmlns:xlink="http://www.w3.org/1999/xlink" x="0px" y="0px"
	 viewBox="0 0 70.1 60.1" style="enable-background:new 0 0 70.1 60.1;" xml:space="preserve">
<style type="text/css">
	.st0{fill:#0060B6;}
	.st1{fill:#F4F9FB;}
	.st2{fill:#F4F8FB;}
	.st3{fill:#DBEAF3;}
	.st4{fill:#F1F7FA;}
	.st5{fill:#D9E9F2;}
	.st6{fill:#D3E6F0;}
	.st7{fill:#0470AD;}
	.st8{fill:#0370AD;}
	.st9{fill:#0D76B0;}
	.st10{fill:#4495C2;}
	.st11{fill:#4797C3;}
</style>
<title>ubiacionInp</title>
<path class="st0" d="M1,0.1c22,0,44,0,66-0.1c2.5,0,3.1,0.6,3.1,3.1c-0.1,18-0.1,36,0,54c0,2.5-0.6,3.1-3.1,3.1
	C45,60,23,60.1,1,60.1c-1.2-1.4-1-3.1-1-4.8C0,38.5,0,21.7,0,4.8C0,3.2-0.2,1.5,1,0.1z"/>
<path class="st1" d="M27.8,19.7c0.1-1.7,1.3-3.2,3-3.7c1-0.7,0.6-2.4,1.9-3c2.1-0.7,4.4-0.7,6.5,0c1.3,0.6,0.9,2.2,1.9,3
	c1.7,0.5,2.9,2,3,3.8c0.6,3.5,0.6,7.1,0,10.6c-3.4,4.4,1,3.2,2.8,3.8c0.4,1.1-0.3,1.7-1,2.3c-0.5,0.5-1,0.9-1.5,1.3
	c-1,1.2-1.9,2.5-2.6,3.9c-0.5,0.6-1.4,0.8-2.1,0.5c-0.4-0.4-0.8-0.8-0.9-1.4c-0.3-6.3-0.6-12.7,0.2-19c0.2-0.4,0.6-0.8,1.1-1
	c0.3-0.1,0.6,0,0.9,0.1c0.5,0.2,0.7,0.7,1,1c-0.1-0.5-0.3-0.9-0.6-1.3c-3.5-2.1-7.1-1.4-10.6,0c-0.2,0.4-0.7,0.6-0.5,1.2
	c0.3-0.6,0.9-1,1.6-0.8c0.7,0.3,1.3,1,1.5,1.8c0.3,6.2,0.3,12.5,0,18.7c-0.1,0.6-0.4,1.1-0.7,1.5c-1.1,1-1.9,0.4-2.7-0.4
	c-1-1.3-0.9-3.2-2.5-4.2c-1.6-0.5-3.5-0.3-4.7-1.8c-0.2-0.4-0.1-0.9,0.2-1.2c1-1.3,2.6-1.3,4-1.6c2.8-0.6,0.7-2.1,0.9-3.2
	C27.3,26.9,27.3,23.3,27.8,19.7z"/>
<path class="st2" d="M23,35.2l0.1,1.1c1,2,0.5,4.2,0.8,6.3c0.7,4.4,3.8,7.2,8,6c2.6-0.9,5.5-0.9,8.1,0.1c1.3,0.5,2.9,0,4.4-0.4
	s3.2-1,4.8-0.2c0.7,0.3,1,1.1,0.9,1.8c-9.6,7.3-25,5.2-32.6-4.7c-1.1-1.4-3-0.5-3.5-2.5C18.5,42.1,18.4,36,23,35.2z"/>
<path class="st3" d="M33.1,14.1l-2.2,2c0.5-1.2-0.3-2.2-0.6-3.3c-0.8-2.5,0.3-5.2,2.6-6.4c2-1.3,4.7-1.2,6.6,0.3
	c2,1.3,2.9,3.8,2.2,6.1c-0.3,1.1-0.9,2.2-0.5,3.3l-2.2-2C37,10.3,35,10.4,33.1,14.1z"/>
<path class="st4" d="M50,49.9L49,49c-1.2-4.2-0.8-8.4-0.5-12.6c0.5-0.6,1-1,1.8-0.5c3.7,1,3.4,6.5,8,6.8C54.1,43.8,54,49.1,50,49.9z
	"/>
<path class="st5" d="M27.8,19.7c0,3.6,0,7.2,0,10.7C26.6,27,26.6,23.2,27.8,19.7z"/>
<path class="st6" d="M44.2,30.4c-0.4-3.5-0.4-7.1,0-10.6C45,23.3,45,26.9,44.2,30.4z"/>
<path class="st6" d="M50.2,36L49,37.1c-2.1,1-3.7,0.7-4.3-1.8l2.2-1C48.2,34.4,49.4,35,50.2,36z"/>
<path class="st7" d="M44.7,35.2l4.3,1.8c1.2,1.3,2.9,2.3,3.6,4.2c-0.4,1.8-3-0.2-3.4,1.9c6.5,2.2,1.2,3.9-0.2,5.9
	c-2.4,0.7-4.7,1.5-7.1,2.2c-2.7,0.9-5.2,1.3-5.5-3.1c-3,5.5-11.9,3.5-17-3.3c0.5-1.6,3,0.2,3.3-1.9c-0.6-1.7-2.8-0.2-3.7-1.8l4-4.9
	c2.2,0.3,3.9-1.1,5.9-1.4c3.2,1.5,0.5,4.6,1.8,6.5c0,0.8,0.1,1.6,1.1,1.8c2.5-1.6,5.3-1.6,8.1-1l1-0.8c1.3-1.9-1.3-5,1.9-6.4
	L44.7,35.2z"/>
<path class="st8" d="M29.8,19.8c2.6-3.4,7.5-4,10.9-1.4c0.5,0.4,1,0.9,1.4,1.4c0.3,1.1-0.2,1.4-1.2,1.2L40,21.3
	c-1.2,6.6-0.2,13.3-0.6,19.9c-1.2,2.2-2.4,1.9-3.3-0.1c-0.5-1.2-0.2-2.6-0.2-3.9c0,1.3,0.3,2.7-0.2,3.9c-0.8,2.1-2.1,2.4-3.3,0.2
	c-0.2-6.5,0.4-13-0.4-19.5c-0.1-0.5-0.6-0.8-1-0.7c0,0-0.1,0-0.1,0C30,21.3,29.5,21,29.8,19.8z"/>
<path class="st9" d="M33.1,14.1c-1.2-2.1-1.4-4.1,0.6-5.8c1.3-1.2,3.3-1.2,4.6,0c2.1,1.7,1.7,3.7,0.6,5.8
	C37.2,15.4,34.8,15.4,33.1,14.1z"/>
<path class="st2" d="M33.1,42c2.6-0.4,1.7-2.4,1.8-3.9c0.2-2.4-0.4-4.9,0.5-7.7c2.7,1.9,0.9,4.6,1.5,6.7c0.5,1.6-1.5,4.2,1.8,4.8
	c0.4-0.6,0.8-0.6,1.1,0.1l0.1,0.1c-2.3,3.3-5.3,1.5-8.1,1V42C32.4,41.4,32.8,41.4,33.1,42z"/>
<path class="st6" d="M40,42.1L38.9,42c1-5.1,0.2-10.3,0.5-15.4c0.1-1.8-0.6-3.7,0.7-5.3C40,28.2,40,35.2,40,42.1z"/>
<path class="st5" d="M33.1,42L32,42.1c0-6.8,0.1-13.5,0.1-20.3C33.5,28.4,31.8,35.3,33.1,42z"/>
<path class="st10" d="M29.8,19.8l1.2,1.2l-0.6,8.5C29,26.3,28.4,23.1,29.8,19.8z"/>
<path class="st11" d="M41,21.1l1.2-1.2c1.8,3.1,0.3,6.4,0.5,9.6C40.2,27.1,41.9,23.8,41,21.1z"/>
<path class="st5" d="M30.8,41.4c-1.5-1.9,0.9-5-1.8-6.5C33.2,36.1,30.4,39.2,30.8,41.4z"/>
<path class="st6" d="M43,34.9c-2.7,1.5-0.3,4.5-1.9,6.4C41.6,39.1,38.7,36,43,34.9z"/>
</svg>
