<?xml version="1.0" encoding="utf-8"?>
<!-- Generator: Adobe Illustrator 21.0.1, SVG Export Plug-In . SVG Version: 6.00 Build 0)  -->
<svg version="1.1" id="Capa_1" xmlns="http://www.w3.org/2000/svg" xmlns:xlink="http://www.w3.org/1999/xlink" x="0px" y="0px"
	 viewBox="0 0 61 61" style="enable-background:new 0 0 61 61;" xml:space="preserve">
<style type="text/css">
	.st0{fill:#9FC41E;}
	.st1{fill:#889B26;}
	.st2{fill:#FFFFFF;}
</style>
<g>
	<g>
		<g>
			<circle class="st0" cx="30.7" cy="30.5" r="28.4"/>
			<path class="st1" d="M30.8,2.2c15.7,0,28.4,12.7,28.4,28.4S46.5,59,30.8,59"/>
		</g>
		<g>
			<g>
				<path class="st2" d="M14,24.6c11.3,0,22.7,0,34,0c1.4,0,1.5-2.3,0-2.3c-11.3,0-22.7,0-34,0C12.6,22.4,12.5,24.6,14,24.6L14,24.6
					z"/>
			</g>
		</g>
		<g>
			<g>
				<path class="st2" d="M14,32.6c11.3,0,22.7,0,34,0c1.4,0,1.5-2.3,0-2.3c-11.3,0-22.7,0-34,0C12.6,30.4,12.5,32.6,14,32.6L14,32.6
					z"/>
			</g>
		</g>
		<g>
			<g>
				<path class="st2" d="M14,40.6c11.3,0,22.7,0,34,0c1.4,0,1.5-2.3,0-2.3c-11.3,0-22.7,0-34,0C12.6,38.4,12.5,40.6,14,40.6L14,40.6
					z"/>
			</g>
		</g>
	</g>
</g>
</svg>
