<svg id="Capa_1" data-name="Capa 1" xmlns="http://www.w3.org/2000/svg" viewBox="0 0 64 64"><defs><style>.cls-1{fill:#fff;}</style></defs><title>ICONOS</title><path class="cls-1" d="M58.15,13.92a1.56,1.56,0,0,0-1.45-1.44A62.15,62.15,0,0,1,45.2,10,89.65,89.65,0,0,1,32.84,5a1.79,1.79,0,0,0-1.68,0,87.66,87.66,0,0,1-12.33,5A63.28,63.28,0,0,1,7.37,12.48a1.7,1.7,0,0,0-1.52,1.44q-.54,20.5,10.39,33.54A44.86,44.86,0,0,0,31.16,59a1.83,1.83,0,0,0,1.73,0A45.7,45.7,0,0,0,47.77,47.46q10.93-13,10.38-33.54M45.56,46.4A44.18,44.18,0,0,1,32,57.11,43.91,43.91,0,0,1,18.44,46.4Q8.06,33.94,8.27,14.48a68.68,68.68,0,0,0,11.37-2.62A100.88,100.88,0,0,0,32,6.93a100.69,100.69,0,0,0,12.34,4.93,68.91,68.91,0,0,0,11.39,2.62q.2,19.58-10.17,31.92"/><rect class="cls-1" x="30.66" y="6.94" width="2.68" height="50.17"/><rect class="cls-1" x="8.8" y="30.66" width="45.47" height="2.68"/></svg>